<?xml version="1.0" encoding="UTF-8" standalone="no"?>
<!DOCTYPE svg PUBLIC "-//W3C//DTD SVG 1.1//EN"
 "http://www.w3.org/Graphics/SVG/1.1/DTD/svg11.dtd">
<!-- Generated by graphviz version 2.43.0 (0)
 -->
<!-- Title: token_type.hpp Pages: 1 -->
<svg width="152pt" height="192pt"
 viewBox="0.00 0.00 151.50 192.00" xmlns="http://www.w3.org/2000/svg" xmlns:xlink="http://www.w3.org/1999/xlink">
<g id="graph0" class="graph" transform="scale(1 1) rotate(0) translate(4 188)">
<title>token_type.hpp</title>
<!-- Node1 -->
<g id="Node000001" class="node">
<title>Node1</title>
<g id="a_Node000001"><a xlink:title=" ">
<polygon fill="#999999" stroke="#666666" points="106.5,-184 14.5,-184 14.5,-165 106.5,-165 106.5,-184"/>
<text text-anchor="middle" x="60.5" y="-172" font-family="Helvetica,sans-Serif" font-size="10.00">token_type.hpp</text>
</a>
</g>
</g>
<!-- Node2 -->
<g id="Node000002" class="node">
<title>Node2</title>
<g id="a_Node000002"><a xlink:href="lexer_8hpp.html" target="_top" xlink:title=" ">
<polygon fill="white" stroke="#666666" points="61,-74 0,-74 0,-55 61,-55 61,-74"/>
<text text-anchor="middle" x="30.5" y="-62" font-family="Helvetica,sans-Serif" font-size="10.00">lexer.hpp</text>
</a>
</g>
</g>
<!-- Node1&#45;&gt;Node2 -->
<g id="edge1_Node000001_Node000002" class="edge">
<title>Node1&#45;&gt;Node2</title>
<g id="a_edge1_Node000001_Node000002"><a xlink:title=" ">
<path fill="none" stroke="#63b8ff" d="M55.31,-154.8C48.75,-131.2 37.74,-91.58 32.91,-74.16"/>
<polygon fill="#63b8ff" stroke="#63b8ff" points="52,-155.96 58.04,-164.66 58.74,-154.09 52,-155.96"/>
</a>
</g>
</g>
<!-- Node4 -->
<g id="Node000004" class="node">
<title>Node4</title>
<g id="a_Node000004"><a xlink:href="token_8hpp.html" target="_top" xlink:title=" ">
<polygon fill="white" stroke="#666666" points="124,-129 59,-129 59,-110 124,-110 124,-129"/>
<text text-anchor="middle" x="91.5" y="-117" font-family="Helvetica,sans-Serif" font-size="10.00">token.hpp</text>
</a>
</g>
</g>
<!-- Node1&#45;&gt;Node4 -->
<g id="edge3_Node000001_Node000004" class="edge">
<title>Node1&#45;&gt;Node4</title>
<g id="a_edge3_Node000001_Node000004"><a xlink:title=" ">
<path fill="none" stroke="#63b8ff" d="M70.68,-156.1C75.97,-147.04 82.22,-136.37 86.48,-129.09"/>
<polygon fill="#63b8ff" stroke="#63b8ff" points="67.65,-154.35 65.62,-164.75 73.69,-157.88 67.65,-154.35"/>
</a>
</g>
</g>
<!-- Node3 -->
<g id="Node000003" class="node">
<title>Node3</title>
<g id="a_Node000003"><a xlink:href="lexer_8cpp.html" target="_top" xlink:title=" ">
<polygon fill="white" stroke="#666666" points="60.5,-19 0.5,-19 0.5,0 60.5,0 60.5,-19"/>
<text text-anchor="middle" x="30.5" y="-7" font-family="Helvetica,sans-Serif" font-size="10.00">lexer.cpp</text>
</a>
</g>
</g>
<!-- Node2&#45;&gt;Node3 -->
<g id="edge2_Node000002_Node000003" class="edge">
<title>Node2&#45;&gt;Node3</title>
<g id="a_edge2_Node000002_Node000003"><a xlink:title=" ">
<path fill="none" stroke="#63b8ff" d="M30.5,-44.66C30.5,-35.93 30.5,-25.99 30.5,-19.09"/>
<polygon fill="#63b8ff" stroke="#63b8ff" points="27,-44.75 30.5,-54.75 34,-44.75 27,-44.75"/>
</a>
</g>
</g>
<!-- Node4&#45;&gt;Node2 -->
<g id="edge4_Node000004_Node000002" class="edge">
<title>Node4&#45;&gt;Node2</title>
<g id="a_edge4_Node000004_Node000002"><a xlink:title=" ">
<path fill="none" stroke="#63b8ff" d="M74.03,-103.32C63.16,-93.87 49.56,-82.06 40.48,-74.17"/>
<polygon fill="#63b8ff" stroke="#63b8ff" points="71.85,-106.07 81.7,-109.98 76.45,-100.78 71.85,-106.07"/>
</a>
</g>
</g>
<!-- Node5 -->
<g id="Node000005" class="node">
<title>Node5</title>
<g id="a_Node000005"><a xlink:href="token_8cpp.html" target="_top" xlink:title=" ">
<polygon fill="white" stroke="#666666" points="143.5,-74 79.5,-74 79.5,-55 143.5,-55 143.5,-74"/>
<text text-anchor="middle" x="111.5" y="-62" font-family="Helvetica,sans-Serif" font-size="10.00">token.cpp</text>
</a>
</g>
</g>
<!-- Node4&#45;&gt;Node5 -->
<g id="edge5_Node000004_Node000005" class="edge">
<title>Node4&#45;&gt;Node5</title>
<g id="a_edge5_Node000004_Node000005"><a xlink:title=" ">
<path fill="none" stroke="#63b8ff" d="M98.39,-100.24C101.74,-91.37 105.6,-81.14 108.26,-74.09"/>
<polygon fill="#63b8ff" stroke="#63b8ff" points="95.06,-99.16 94.8,-109.75 101.61,-101.63 95.06,-99.16"/>
</a>
</g>
</g>
</g>
</svg>
